# xmcd CD database file
#
# Track frame offsets:
#	150
#	24297
#	52855
#	75440
#	101217
#	124850
#	156385
#	183245
#	208672
#	242575
#
# Disc length: 3444 seconds
#
# Revision: 0
# Processed by: cddbd v1.4PL0 Copyright (c) Steve Scherf et al.
# Submitted via: CDex 1.50Beta7
#
DISCID=780d720a
DTITLE=Agneta Baumann - Sentimental Lady
DYEAR=2002
DGENRE=Jazz
TTITLE0=Born to be Blue
TTITLE1=Close Enough for Love
TTITLE2=I Didn't Know About You
TTITLE3=I'm Glad There is You
TTITLE4=If You Could See Me Now
TTITLE5=What Are You Doing The Rest of Your Life
TTITLE6=My Ship
TTITLE7=Only Trust Your Heart
TTITLE8=Young and Foolish
TTITLE9=Where Do You Start
EXTD=YEAR: 2002
EXTT0=
EXTT1=
EXTT2=
EXTT3=
EXTT4=
EXTT5=
EXTT6=
EXTT7=
EXTT8=
EXTT9=
PLAYORDER=
